<svg width="40" height="24" viewBox="0 0 40 24" fill="none" xmlns="http://www.w3.org/2000/svg">
<rect width="40" height="24" rx="2" fill="black"/>
<path d="M15 8C15.3 8 15.7 8.2 16 8.5C16.3 8.8 16.5 9.2 16.5 9.5C16.5 9.8 16.3 10.2 16 10.5C15.7 10.8 15.3 11 15 11C14.7 11 14.3 10.8 14 10.5C13.7 10.2 13.5 9.8 13.5 9.5C13.5 9.2 13.7 8.8 14 8.5C14.3 8.2 14.7 8 15 8Z" fill="white"/>
<path d="M13.5 11.5C13.8 11.5 14.2 11.7 14.5 12C14.8 12.3 15 12.7 15 13V16C15 16.3 14.8 16.7 14.5 17C14.2 17.3 13.8 17.5 13.5 17.5C13.2 17.5 12.8 17.3 12.5 17C12.2 16.7 12 16.3 12 16V13C12 12.7 12.2 12.3 12.5 12C12.8 11.7 13.2 11.5 13.5 11.5Z" fill="white"/>
<path d="M18 8.5C18.3 8.5 18.7 8.7 19 9C19.3 9.3 19.5 9.7 19.5 10V16C19.5 16.3 19.3 16.7 19 17C18.7 17.3 18.3 17.5 18 17.5C17.7 17.5 17.3 17.3 17 17C16.7 16.7 16.5 16.3 16.5 16V10C16.5 9.7 16.7 9.3 17 9C17.3 8.7 17.7 8.5 18 8.5Z" fill="white"/>
<path d="M22.5 7C22.8 7 23.2 7.2 23.5 7.5C23.8 7.8 24 8.2 24 8.5V16C24 16.3 23.8 16.7 23.5 17C23.2 17.3 22.8 17.5 22.5 17.5C22.2 17.5 21.8 17.3 21.5 17C21.2 16.7 21 16.3 21 16V8.5C21 8.2 21.2 7.8 21.5 7.5C21.8 7.2 22.2 7 22.5 7Z" fill="white"/>
<path d="M27 8.5C27.3 8.5 27.7 8.7 28 9C28.3 9.3 28.5 9.7 28.5 10V16C28.5 16.3 28.3 16.7 28 17C27.7 17.3 27.3 17.5 27 17.5C26.7 17.5 26.3 17.3 26 17C25.7 16.7 25.5 16.3 25.5 16V10C25.5 9.7 25.7 9.3 26 9C26.3 8.7 26.7 8.5 27 8.5Z" fill="white"/>
</svg>
