<svg width="40" height="24" viewBox="0 0 40 24" fill="none" xmlns="http://www.w3.org/2000/svg">
<rect width="40" height="24" rx="2" fill="#003087"/>
<path d="M12 8.5L10 15.5H13L15 8.5H12Z" fill="white"/>
<path d="M16 10.5C15.5 10.5 15 10.8 14.5 11.2L14.8 10.5H13L12 15.5H14C14.2 14.8 14.5 14 14.8 13.2C15.2 12.2 15.8 11.5 16.5 11.5C17.2 11.5 17.5 12 17.2 13C16.8 14 16.5 14.8 16.3 15.5H18.5C18.8 14.8 19 14 19.3 13C19.8 11 19.3 10.5 18 10.5H16Z" fill="white"/>
<path d="M22 8.5C20.5 8.5 19.5 9.2 19 10.5L18 15.5H20.5L21.5 11.2C21.8 10.2 22.2 9.8 23 9.8C23.8 9.8 24 10.2 23.8 11L22.8 15.5H25.3L26.3 11C26.8 9 26 8.5 24.5 8.5H22Z" fill="white"/>
<path d="M28 12.5C27.5 12.5 27 12.8 26.8 13.2L27 12.5H25.5L24.5 15.5H27C27.2 15.2 27.3 14.8 27.5 14.5C27.7 14.2 27.8 14 28 14C28.2 14 28.3 14.2 28.2 14.5C28 14.8 27.8 15.2 27.8 15.5H29.5C29.7 15.2 29.8 14.8 30 14.5C30.2 13.5 29.8 12.5 28.5 12.5H28Z" fill="white"/>
</svg>
