<svg width="40" height="24" viewBox="0 0 40 24" fill="none" xmlns="http://www.w3.org/2000/svg">
<rect width="40" height="24" rx="2" fill="#1A1F71"/>
<path d="M16.5 8.5L14.5 15.5H12.5L10.5 8.5H12.5L13.5 12.5L14.5 8.5H16.5Z" fill="white"/>
<path d="M18 15.5H20L21.5 8.5H19.5L18 15.5Z" fill="white"/>
<path d="M24 10.5C23.5 10.5 23 10.8 22.5 11.2L22.8 10.5H21L20 15.5H21.8C22 14.8 22.2 14.2 22.5 13.5C22.8 12.8 23.2 12.5 23.5 12.5C23.8 12.5 24 12.8 23.8 13.5C23.5 14.2 23.3 14.8 23.2 15.5H25C25.2 14.8 25.3 14.2 25.5 13.5C26 11.8 25.5 10.5 24 10.5Z" fill="white"/>
<path d="M28.5 12.5C28 12.5 27.5 12.8 27.2 13.2L27.5 12.5H26L25 15.5H26.8C27 15.2 27.2 14.8 27.3 14.5C27.5 14.2 27.8 14 28 14C28.2 14 28.3 14.2 28.2 14.5C28 14.8 27.8 15.2 27.8 15.5H29.5C29.7 15.2 29.8 14.8 30 14.5C30.2 13.5 29.8 12.5 28.5 12.5Z" fill="white"/>
</svg>
